# xmcd
#
# Track frame offsets: 
#        150
#        18270
#        32922
#        56860
#        70129
#        83348
#        98232
#        121179
#        141279
#        159763
#        173284
#        188191
#        203515
#        217581
#        243890
#
# Disc length: 3460 seconds
#
# Revision: 0
# Processed by: cddbd v1.5.2PL0 Copyright (c) Steve Scherf et al.
# Submitted via: ExactAudioCopy v0.95a5
#
DISCID=b10d820f
DTITLE=Various Artist - Parents-Chind Music:Kingdom of Pixies
DYEAR=2006
DGENRE=Blues
TTITLE0=Spring Walking
TTITLE1=New Morning
TTITLE2=Care for Baby
TTITLE3=Flowing Stream
TTITLE4=Free Wind
TTITLE5=Fairy Tale
TTITLE6=American Countryside
TTITLE7=Serene Feelings
TTITLE8=Concern and Love
TTITLE9=Grand View
TTITLE10=Prayer
TTITLE11=Fortune Star
TTITLE12=Blessing of New Year
TTITLE13=Fly
TTITLE14=Rainstorm
EXTD=
EXTT0=
EXTT1=
EXTT2=
EXTT3=
EXTT4=
EXTT5=
EXTT6=
EXTT7=
EXTT8=
EXTT9=
EXTT10=
EXTT11=
EXTT12=
EXTT13=
EXTT14=
PLAYORDER=
